<svg id="Layer_1" data-name="Layer 1" xmlns="http://www.w3.org/2000/svg" viewBox="0 0 188.91 215.24"><defs><style>.cls-1,.cls-3{fill:none;}.cls-1{stroke:#fff;stroke-miterlimit:10;stroke-width:3px;}.cls-2{font-size:60px;fill:#fff;font-family:AzonixRegular, Azonix;}</style></defs><path class="cls-1" d="M379.29,397.75l-84,48.47a9,9,0,0,1-9,0l-83.95-48.47a9,9,0,0,1-4.5-7.8V293a9,9,0,0,1,4.5-7.8l83.95-48.47a9,9,0,0,1,9,0l84,48.47a9,9,0,0,1,4.5,7.8V390A9,9,0,0,1,379.29,397.75Z" transform="translate(-196.38 -234.04)"/><path class="cls-1" d="M290,447.26,201.53,289.84a1,1,0,0,1,.87-1.49H379.26a1,1,0,0,1,.88,1.49L291.7,447.26A1,1,0,0,1,290,447.26Z" transform="translate(-196.38 -234.04)"/><text class="cls-2" transform="translate(48.47 124.78)">KM</text><line class="cls-3" x1="58.86" y1="67.64" x2="128.99" y2="67.64"/><line class="cls-1" x1="69.34" y1="142.96" x2="119.57" y2="142.96"/><line class="cls-1" x1="68.81" y1="67.64" x2="119.04" y2="67.64"/></svg>