<svg id="Layer_1" data-name="Layer 1" xmlns="http://www.w3.org/2000/svg" viewBox="0 0 188.91 215.24"><defs><style>.cls-1,.cls-2{fill:none;stroke:#cd2c6c;stroke-miterlimit:10;}.cls-1{stroke-width:3px;}.cls-2{font-size:60px;font-family:AzonixRegular, Azonix;}</style></defs><path class="cls-1" d="M394.46,394.09l-84,48.47a9,9,0,0,1-9,0l-84-48.47a9,9,0,0,1-4.5-7.8V289.35a9,9,0,0,1,4.5-7.8l84-48.47a9,9,0,0,1,9,0l84,48.47a9,9,0,0,1,4.5,7.8v96.94A9,9,0,0,1,394.46,394.09Z" transform="translate(-211.54 -230.38)"/><path class="cls-1" d="M305.13,443.6,216.7,286.18a1,1,0,0,1,.87-1.49H394.43a1,1,0,0,1,.87,1.49L306.87,443.6A1,1,0,0,1,305.13,443.6Z" transform="translate(-211.54 -230.38)"/><text class="cls-2" transform="translate(45.88 123.25)">KM</text><line class="cls-1" x1="69.34" y1="134.94" x2="119.57" y2="134.94"/><line class="cls-1" x1="69.34" y1="67.3" x2="119.57" y2="67.3"/></svg>